<mxfile host="app.diagrams.net" modified="2022-09-04T23:55:54.839Z" agent="5.0 (Windows NT 10.0; Win64; x64) AppleWebKit/537.36 (KHTML, like Gecko) Chrome/104.0.0.0 Safari/537.36" etag="eaT__9dDbd8yJpCMyH9A" version="20.2.8" type="github">
  <diagram name="Page-1" id="c37626ed-c26b-45fb-9056-f9ebc6bb27b6">
    <mxGraphModel dx="1422" dy="762" grid="1" gridSize="10" guides="1" tooltips="1" connect="1" arrows="1" fold="1" page="1" pageScale="1" pageWidth="1100" pageHeight="850" background="none" math="0" shadow="0">
      <root>
        <mxCell id="0" />
        <mxCell id="1" parent="0" />
        <mxCell id="eK7x-1E2wZdcLzOX8uDX-14" style="edgeStyle=none;rounded=0;orthogonalLoop=1;jettySize=auto;html=1;exitX=1;exitY=0.5;exitDx=0;exitDy=0;exitPerimeter=0;entryX=0.07;entryY=0.4;entryDx=0;entryDy=0;entryPerimeter=0;endArrow=none;endFill=0;" edge="1" parent="1" source="1c7a67bf8fd3230f-10" target="eK7x-1E2wZdcLzOX8uDX-6">
          <mxGeometry relative="1" as="geometry" />
        </mxCell>
        <mxCell id="eK7x-1E2wZdcLzOX8uDX-16" style="edgeStyle=none;rounded=0;orthogonalLoop=1;jettySize=auto;html=1;exitX=0.5;exitY=1;exitDx=0;exitDy=0;exitPerimeter=0;entryX=0.5;entryY=0;entryDx=0;entryDy=0;entryPerimeter=0;endArrow=none;endFill=0;" edge="1" parent="1" source="1c7a67bf8fd3230f-10" target="eK7x-1E2wZdcLzOX8uDX-3">
          <mxGeometry relative="1" as="geometry" />
        </mxCell>
        <mxCell id="1c7a67bf8fd3230f-10" value="" style="shape=mxgraph.cisco.security.ios_firewall;html=1;dashed=0;fillColor=#036897;strokeColor=#ffffff;strokeWidth=2;verticalLabelPosition=bottom;verticalAlign=top;rounded=0;shadow=0;comic=0;fontFamily=Verdana;fontSize=12;" parent="1" vertex="1">
          <mxGeometry x="740" y="134" width="40" height="66" as="geometry" />
        </mxCell>
        <mxCell id="eK7x-1E2wZdcLzOX8uDX-7" style="edgeStyle=none;rounded=0;orthogonalLoop=1;jettySize=auto;html=1;exitX=1;exitY=0.5;exitDx=0;exitDy=0;exitPerimeter=0;entryX=0;entryY=0.5;entryDx=0;entryDy=0;entryPerimeter=0;endArrow=none;endFill=0;" edge="1" parent="1" source="1c7a67bf8fd3230f-46" target="1c7a67bf8fd3230f-47">
          <mxGeometry relative="1" as="geometry" />
        </mxCell>
        <mxCell id="eK7x-1E2wZdcLzOX8uDX-27" style="edgeStyle=none;rounded=0;orthogonalLoop=1;jettySize=auto;html=1;exitX=0;exitY=0.5;exitDx=0;exitDy=0;exitPerimeter=0;entryX=0.87;entryY=0.74;entryDx=0;entryDy=0;entryPerimeter=0;endArrow=none;endFill=0;" edge="1" parent="1" source="1c7a67bf8fd3230f-46" target="eK7x-1E2wZdcLzOX8uDX-26">
          <mxGeometry relative="1" as="geometry" />
        </mxCell>
        <mxCell id="eK7x-1E2wZdcLzOX8uDX-44" style="edgeStyle=orthogonalEdgeStyle;shape=link;curved=1;rounded=0;orthogonalLoop=1;jettySize=auto;html=1;exitX=0.5;exitY=0;exitDx=0;exitDy=0;exitPerimeter=0;entryX=0.12;entryY=0.1;entryDx=0;entryDy=0;entryPerimeter=0;endArrow=none;endFill=0;fillColor=#f5f5f5;strokeColor=#666666;gradientColor=#b3b3b3;" edge="1" parent="1" source="1c7a67bf8fd3230f-46" target="1c7a67bf8fd3230f-47">
          <mxGeometry relative="1" as="geometry">
            <Array as="points">
              <mxPoint x="919" y="400" />
              <mxPoint x="1289" y="400" />
            </Array>
          </mxGeometry>
        </mxCell>
        <mxCell id="1c7a67bf8fd3230f-46" value="" style="shape=mxgraph.cisco.routers.router;html=1;dashed=0;fillColor=#036897;strokeColor=#ffffff;strokeWidth=2;verticalLabelPosition=bottom;verticalAlign=top;rounded=0;shadow=0;comic=0;fontFamily=Verdana;fontSize=12;" parent="1" vertex="1">
          <mxGeometry x="880" y="469" width="78" height="53" as="geometry" />
        </mxCell>
        <mxCell id="eK7x-1E2wZdcLzOX8uDX-13" style="edgeStyle=none;rounded=0;orthogonalLoop=1;jettySize=auto;html=1;exitX=0.88;exitY=0.1;exitDx=0;exitDy=0;exitPerimeter=0;entryX=0.13;entryY=0.91;entryDx=0;entryDy=0;entryPerimeter=0;endArrow=none;endFill=0;" edge="1" parent="1" source="1c7a67bf8fd3230f-47" target="eK7x-1E2wZdcLzOX8uDX-4">
          <mxGeometry relative="1" as="geometry" />
        </mxCell>
        <mxCell id="1c7a67bf8fd3230f-47" value="" style="shape=mxgraph.cisco.routers.router;html=1;dashed=0;fillColor=#036897;strokeColor=#ffffff;strokeWidth=2;verticalLabelPosition=bottom;verticalAlign=top;rounded=0;shadow=0;comic=0;fontFamily=Verdana;fontSize=12;" parent="1" vertex="1">
          <mxGeometry x="1280" y="469" width="78" height="53" as="geometry" />
        </mxCell>
        <mxCell id="eK7x-1E2wZdcLzOX8uDX-1" value="" style="shape=mxgraph.cisco.servers.fileserver;sketch=0;html=1;pointerEvents=1;dashed=0;fillColor=#036897;strokeColor=#ffffff;strokeWidth=2;verticalLabelPosition=bottom;verticalAlign=top;align=center;outlineConnect=0;" vertex="1" parent="1">
          <mxGeometry x="560" y="349" width="43" height="62" as="geometry" />
        </mxCell>
        <mxCell id="eK7x-1E2wZdcLzOX8uDX-2" value="" style="shape=mxgraph.cisco.computers_and_peripherals.workstation;sketch=0;html=1;pointerEvents=1;dashed=0;fillColor=#036897;strokeColor=#ffffff;strokeWidth=2;verticalLabelPosition=bottom;verticalAlign=top;align=center;outlineConnect=0;" vertex="1" parent="1">
          <mxGeometry x="760" y="549" width="83" height="62" as="geometry" />
        </mxCell>
        <mxCell id="eK7x-1E2wZdcLzOX8uDX-12" style="edgeStyle=none;rounded=0;orthogonalLoop=1;jettySize=auto;html=1;exitX=0.87;exitY=0.91;exitDx=0;exitDy=0;exitPerimeter=0;entryX=0.12;entryY=0.1;entryDx=0;entryDy=0;entryPerimeter=0;endArrow=none;endFill=0;" edge="1" parent="1" source="eK7x-1E2wZdcLzOX8uDX-3" target="1c7a67bf8fd3230f-46">
          <mxGeometry relative="1" as="geometry" />
        </mxCell>
        <mxCell id="eK7x-1E2wZdcLzOX8uDX-45" style="edgeStyle=orthogonalEdgeStyle;shape=link;curved=1;rounded=0;orthogonalLoop=1;jettySize=auto;html=1;exitX=0.87;exitY=0.09;exitDx=0;exitDy=0;exitPerimeter=0;entryX=0;entryY=0.5;entryDx=0;entryDy=0;entryPerimeter=0;endArrow=none;endFill=0;fillColor=#f8cecc;gradientColor=#ea6b66;strokeColor=#b85450;" edge="1" parent="1" source="eK7x-1E2wZdcLzOX8uDX-3" target="eK7x-1E2wZdcLzOX8uDX-4">
          <mxGeometry relative="1" as="geometry">
            <Array as="points">
              <mxPoint x="788" y="300" />
              <mxPoint x="1440" y="300" />
            </Array>
          </mxGeometry>
        </mxCell>
        <mxCell id="eK7x-1E2wZdcLzOX8uDX-3" value="" style="shape=mxgraph.cisco.routers.service_router;sketch=0;html=1;pointerEvents=1;dashed=0;fillColor=#036897;strokeColor=#ffffff;strokeWidth=2;verticalLabelPosition=bottom;verticalAlign=top;align=center;outlineConnect=0;" vertex="1" parent="1">
          <mxGeometry x="720" y="349" width="78" height="53" as="geometry" />
        </mxCell>
        <mxCell id="eK7x-1E2wZdcLzOX8uDX-4" value="" style="shape=mxgraph.cisco.routers.service_router;sketch=0;html=1;pointerEvents=1;dashed=0;fillColor=#036897;strokeColor=#ffffff;strokeWidth=2;verticalLabelPosition=bottom;verticalAlign=top;align=center;outlineConnect=0;" vertex="1" parent="1">
          <mxGeometry x="1440" y="349" width="78" height="53" as="geometry" />
        </mxCell>
        <mxCell id="eK7x-1E2wZdcLzOX8uDX-6" value="10.0.0.0/24" style="ellipse;shape=cloud;whiteSpace=wrap;html=1;" vertex="1" parent="1">
          <mxGeometry x="1041" y="449" width="120" height="80" as="geometry" />
        </mxCell>
        <mxCell id="eK7x-1E2wZdcLzOX8uDX-15" style="edgeStyle=none;rounded=0;orthogonalLoop=1;jettySize=auto;html=1;exitX=0;exitY=1;exitDx=0;exitDy=0;exitPerimeter=0;entryX=0.88;entryY=0.25;entryDx=0;entryDy=0;entryPerimeter=0;endArrow=none;endFill=0;" edge="1" parent="1" source="eK7x-1E2wZdcLzOX8uDX-8" target="eK7x-1E2wZdcLzOX8uDX-6">
          <mxGeometry relative="1" as="geometry" />
        </mxCell>
        <mxCell id="eK7x-1E2wZdcLzOX8uDX-17" style="edgeStyle=none;rounded=0;orthogonalLoop=1;jettySize=auto;html=1;exitX=0.5;exitY=1;exitDx=0;exitDy=0;exitPerimeter=0;entryX=0.5;entryY=0;entryDx=0;entryDy=0;entryPerimeter=0;endArrow=none;endFill=0;" edge="1" parent="1" source="eK7x-1E2wZdcLzOX8uDX-8" target="eK7x-1E2wZdcLzOX8uDX-4">
          <mxGeometry relative="1" as="geometry" />
        </mxCell>
        <mxCell id="eK7x-1E2wZdcLzOX8uDX-8" value="" style="shape=mxgraph.cisco.security.ios_firewall;html=1;dashed=0;fillColor=#036897;strokeColor=#ffffff;strokeWidth=2;verticalLabelPosition=bottom;verticalAlign=top;rounded=0;shadow=0;comic=0;fontFamily=Verdana;fontSize=12;" vertex="1" parent="1">
          <mxGeometry x="1459" y="134" width="40" height="66" as="geometry" />
        </mxCell>
        <mxCell id="eK7x-1E2wZdcLzOX8uDX-9" value="" style="shape=mxgraph.cisco.servers.fileserver;sketch=0;html=1;pointerEvents=1;dashed=0;fillColor=#036897;strokeColor=#ffffff;strokeWidth=2;verticalLabelPosition=bottom;verticalAlign=top;align=center;outlineConnect=0;" vertex="1" parent="1">
          <mxGeometry x="1640" y="340" width="43" height="62" as="geometry" />
        </mxCell>
        <mxCell id="eK7x-1E2wZdcLzOX8uDX-10" value="" style="shape=mxgraph.cisco.computers_and_peripherals.workstation;sketch=0;html=1;pointerEvents=1;dashed=0;fillColor=#036897;strokeColor=#ffffff;strokeWidth=2;verticalLabelPosition=bottom;verticalAlign=top;align=center;outlineConnect=0;" vertex="1" parent="1">
          <mxGeometry x="540" y="425" width="83" height="62" as="geometry" />
        </mxCell>
        <mxCell id="eK7x-1E2wZdcLzOX8uDX-21" style="edgeStyle=orthogonalEdgeStyle;rounded=0;orthogonalLoop=1;jettySize=auto;html=1;exitX=0.755;exitY=0.5;exitDx=0;exitDy=0;exitPerimeter=0;entryX=0.98;entryY=0.5;entryDx=0;entryDy=0;entryPerimeter=0;endArrow=none;endFill=0;" edge="1" parent="1" source="eK7x-1E2wZdcLzOX8uDX-11" target="eK7x-1E2wZdcLzOX8uDX-19">
          <mxGeometry relative="1" as="geometry">
            <Array as="points">
              <mxPoint x="1710" y="471" />
            </Array>
          </mxGeometry>
        </mxCell>
        <mxCell id="eK7x-1E2wZdcLzOX8uDX-11" value="" style="shape=mxgraph.cisco.computers_and_peripherals.workstation;sketch=0;html=1;pointerEvents=1;dashed=0;fillColor=#036897;strokeColor=#ffffff;strokeWidth=2;verticalLabelPosition=bottom;verticalAlign=top;align=center;outlineConnect=0;" vertex="1" parent="1">
          <mxGeometry x="1620" y="440" width="83" height="62" as="geometry" />
        </mxCell>
        <mxCell id="eK7x-1E2wZdcLzOX8uDX-22" style="edgeStyle=orthogonalEdgeStyle;rounded=0;orthogonalLoop=1;jettySize=auto;html=1;exitX=0;exitY=0.98;exitDx=0;exitDy=0;exitPerimeter=0;entryX=0;entryY=0.5;entryDx=0;entryDy=0;entryPerimeter=0;endArrow=none;endFill=0;" edge="1" parent="1" source="eK7x-1E2wZdcLzOX8uDX-18" target="eK7x-1E2wZdcLzOX8uDX-1">
          <mxGeometry relative="1" as="geometry" />
        </mxCell>
        <mxCell id="eK7x-1E2wZdcLzOX8uDX-23" style="edgeStyle=orthogonalEdgeStyle;rounded=0;orthogonalLoop=1;jettySize=auto;html=1;exitX=0;exitY=0.5;exitDx=0;exitDy=0;exitPerimeter=0;entryX=0.11;entryY=0.5;entryDx=0;entryDy=0;entryPerimeter=0;endArrow=none;endFill=0;" edge="1" parent="1" source="eK7x-1E2wZdcLzOX8uDX-18" target="eK7x-1E2wZdcLzOX8uDX-10">
          <mxGeometry relative="1" as="geometry">
            <Array as="points">
              <mxPoint x="511" y="275" />
              <mxPoint x="511" y="456" />
            </Array>
          </mxGeometry>
        </mxCell>
        <mxCell id="eK7x-1E2wZdcLzOX8uDX-24" style="edgeStyle=none;rounded=0;orthogonalLoop=1;jettySize=auto;html=1;exitX=0.98;exitY=0.5;exitDx=0;exitDy=0;exitPerimeter=0;entryX=0;entryY=0.5;entryDx=0;entryDy=0;entryPerimeter=0;endArrow=none;endFill=0;" edge="1" parent="1" source="eK7x-1E2wZdcLzOX8uDX-18" target="eK7x-1E2wZdcLzOX8uDX-3">
          <mxGeometry relative="1" as="geometry" />
        </mxCell>
        <mxCell id="eK7x-1E2wZdcLzOX8uDX-18" value="" style="shape=mxgraph.cisco.switches.workgroup_switch;sketch=0;html=1;pointerEvents=1;dashed=0;fillColor=#036897;strokeColor=#ffffff;strokeWidth=2;verticalLabelPosition=bottom;verticalAlign=top;align=center;outlineConnect=0;" vertex="1" parent="1">
          <mxGeometry x="531" y="250" width="101" height="50" as="geometry" />
        </mxCell>
        <mxCell id="eK7x-1E2wZdcLzOX8uDX-20" style="edgeStyle=orthogonalEdgeStyle;rounded=0;orthogonalLoop=1;jettySize=auto;html=1;exitX=0.87;exitY=0.74;exitDx=0;exitDy=0;exitPerimeter=0;entryX=1;entryY=0.5;entryDx=0;entryDy=0;entryPerimeter=0;endArrow=none;endFill=0;" edge="1" parent="1" source="eK7x-1E2wZdcLzOX8uDX-19" target="eK7x-1E2wZdcLzOX8uDX-9">
          <mxGeometry relative="1" as="geometry">
            <Array as="points">
              <mxPoint x="1710" y="297" />
              <mxPoint x="1710" y="371" />
            </Array>
          </mxGeometry>
        </mxCell>
        <mxCell id="eK7x-1E2wZdcLzOX8uDX-25" style="edgeStyle=none;rounded=0;orthogonalLoop=1;jettySize=auto;html=1;exitX=0;exitY=0.98;exitDx=0;exitDy=0;exitPerimeter=0;entryX=0.87;entryY=0.09;entryDx=0;entryDy=0;entryPerimeter=0;endArrow=none;endFill=0;" edge="1" parent="1" source="eK7x-1E2wZdcLzOX8uDX-19" target="eK7x-1E2wZdcLzOX8uDX-4">
          <mxGeometry relative="1" as="geometry" />
        </mxCell>
        <mxCell id="eK7x-1E2wZdcLzOX8uDX-19" value="" style="shape=mxgraph.cisco.switches.workgroup_switch;sketch=0;html=1;pointerEvents=1;dashed=0;fillColor=#036897;strokeColor=#ffffff;strokeWidth=2;verticalLabelPosition=bottom;verticalAlign=top;align=center;outlineConnect=0;" vertex="1" parent="1">
          <mxGeometry x="1611" y="260" width="101" height="50" as="geometry" />
        </mxCell>
        <mxCell id="eK7x-1E2wZdcLzOX8uDX-28" style="edgeStyle=none;rounded=0;orthogonalLoop=1;jettySize=auto;html=1;exitX=0.5;exitY=0.98;exitDx=0;exitDy=0;exitPerimeter=0;entryX=0.19;entryY=0.02;entryDx=0;entryDy=0;entryPerimeter=0;endArrow=none;endFill=0;" edge="1" parent="1" source="eK7x-1E2wZdcLzOX8uDX-26" target="eK7x-1E2wZdcLzOX8uDX-2">
          <mxGeometry relative="1" as="geometry" />
        </mxCell>
        <mxCell id="eK7x-1E2wZdcLzOX8uDX-26" value="" style="shape=mxgraph.cisco.switches.workgroup_switch;sketch=0;html=1;pointerEvents=1;dashed=0;fillColor=#036897;strokeColor=#ffffff;strokeWidth=2;verticalLabelPosition=bottom;verticalAlign=top;align=center;outlineConnect=0;" vertex="1" parent="1">
          <mxGeometry x="683.5" y="458" width="101" height="50" as="geometry" />
        </mxCell>
        <mxCell id="eK7x-1E2wZdcLzOX8uDX-29" value="ISR1" style="text;html=1;resizable=0;autosize=1;align=center;verticalAlign=middle;points=[];fillColor=none;strokeColor=none;rounded=0;" vertex="1" parent="1">
          <mxGeometry x="894" y="520" width="50" height="30" as="geometry" />
        </mxCell>
        <mxCell id="eK7x-1E2wZdcLzOX8uDX-30" value="ISR2" style="text;html=1;resizable=0;autosize=1;align=center;verticalAlign=middle;points=[];fillColor=none;strokeColor=none;rounded=0;" vertex="1" parent="1">
          <mxGeometry x="1294" y="520" width="50" height="30" as="geometry" />
        </mxCell>
        <mxCell id="eK7x-1E2wZdcLzOX8uDX-31" value="SRX1" style="text;html=1;resizable=0;autosize=1;align=center;verticalAlign=middle;points=[];fillColor=none;strokeColor=none;rounded=0;" vertex="1" parent="1">
          <mxGeometry x="712" y="319" width="50" height="30" as="geometry" />
        </mxCell>
        <mxCell id="eK7x-1E2wZdcLzOX8uDX-32" value="SRX2" style="text;html=1;resizable=0;autosize=1;align=center;verticalAlign=middle;points=[];fillColor=none;strokeColor=none;rounded=0;" vertex="1" parent="1">
          <mxGeometry x="1474" y="319" width="50" height="30" as="geometry" />
        </mxCell>
        <mxCell id="eK7x-1E2wZdcLzOX8uDX-33" value="10.0.0.146" style="text;html=1;resizable=0;autosize=1;align=center;verticalAlign=middle;points=[];fillColor=none;strokeColor=none;rounded=0;" vertex="1" parent="1">
          <mxGeometry x="946" y="494" width="80" height="30" as="geometry" />
        </mxCell>
        <mxCell id="eK7x-1E2wZdcLzOX8uDX-34" value="10.0.0.36" style="text;html=1;resizable=0;autosize=1;align=center;verticalAlign=middle;points=[];fillColor=none;strokeColor=none;rounded=0;" vertex="1" parent="1">
          <mxGeometry x="951" y="464" width="70" height="30" as="geometry" />
        </mxCell>
        <mxCell id="eK7x-1E2wZdcLzOX8uDX-35" value="10.0.0.65" style="text;html=1;resizable=0;autosize=1;align=center;verticalAlign=middle;points=[];fillColor=none;strokeColor=none;rounded=0;" vertex="1" parent="1">
          <mxGeometry x="1215" y="494" width="70" height="30" as="geometry" />
        </mxCell>
        <mxCell id="eK7x-1E2wZdcLzOX8uDX-36" value="10.0.0.208" style="text;html=1;resizable=0;autosize=1;align=center;verticalAlign=middle;points=[];fillColor=none;strokeColor=none;rounded=0;" vertex="1" parent="1">
          <mxGeometry x="1210" y="468" width="80" height="30" as="geometry" />
        </mxCell>
        <mxCell id="eK7x-1E2wZdcLzOX8uDX-37" value="172.16.10.1/24" style="text;html=1;resizable=0;autosize=1;align=center;verticalAlign=middle;points=[];fillColor=none;strokeColor=none;rounded=0;" vertex="1" parent="1">
          <mxGeometry x="825" y="449" width="100" height="30" as="geometry" />
        </mxCell>
        <mxCell id="eK7x-1E2wZdcLzOX8uDX-38" value="172.16.10.2/24" style="text;html=1;resizable=0;autosize=1;align=center;verticalAlign=middle;points=[];fillColor=none;strokeColor=none;rounded=0;" vertex="1" parent="1">
          <mxGeometry x="751.5" y="395" width="100" height="30" as="geometry" />
        </mxCell>
        <mxCell id="eK7x-1E2wZdcLzOX8uDX-39" value="172.16.20.2/24" style="text;html=1;resizable=0;autosize=1;align=center;verticalAlign=middle;points=[];fillColor=none;strokeColor=none;rounded=0;" vertex="1" parent="1">
          <mxGeometry x="1380" y="395" width="100" height="30" as="geometry" />
        </mxCell>
        <mxCell id="eK7x-1E2wZdcLzOX8uDX-40" value="172.16.20.1/24" style="text;html=1;resizable=0;autosize=1;align=center;verticalAlign=middle;points=[];fillColor=none;strokeColor=none;rounded=0;" vertex="1" parent="1">
          <mxGeometry x="1284" y="448" width="100" height="30" as="geometry" />
        </mxCell>
        <mxCell id="eK7x-1E2wZdcLzOX8uDX-41" value="192.168.2.0/24" style="text;html=1;resizable=0;autosize=1;align=center;verticalAlign=middle;points=[];fillColor=none;strokeColor=none;rounded=0;" vertex="1" parent="1">
          <mxGeometry x="550" y="310" width="100" height="30" as="geometry" />
        </mxCell>
        <mxCell id="eK7x-1E2wZdcLzOX8uDX-42" value="192.168.3.0/24" style="text;html=1;resizable=0;autosize=1;align=center;verticalAlign=middle;points=[];fillColor=none;strokeColor=none;rounded=0;" vertex="1" parent="1">
          <mxGeometry x="1611" y="310" width="100" height="30" as="geometry" />
        </mxCell>
      </root>
    </mxGraphModel>
  </diagram>
</mxfile>
